<svg id="eg90JW7GjCL1" xmlns="http://www.w3.org/2000/svg" xmlns:xlink="http://www.w3.org/1999/xlink" viewBox="0 0 300 300" shape-rendering="geometricPrecision" text-rendering="geometricPrecision"><defs><linearGradient id="eg90JW7GjCL41-fill" x1="0.174039" y1="0.872413" x2="1" y2="0" spreadMethod="pad" gradientUnits="objectBoundingBox" gradientTransform="translate(0 0)"><stop id="eg90JW7GjCL41-fill-0" offset="0%" stop-color="#ff8500"/><stop id="eg90JW7GjCL41-fill-1" offset="100%" stop-color="rgba(246,242,13,0)"/></linearGradient></defs><ellipse rx="73.655189" ry="73.655145" transform="matrix(1.697097 0 0 1.697098 150.000001 141.155654)" fill="#001134" stroke-width="0"/><g transform="translate(.000001-8.844346)"><ellipse rx="100" ry="100" transform="matrix(.530843 0 0 0.530842 188.045937 188.045866)" fill="#2f75ff" stroke-width="0"/><ellipse rx="100" ry="100" transform="matrix(.506754 0 0 0.506753 184.381872 185.636966)" fill="#004ee6" stroke-width="0"/><g transform="translate(6.370761 4.728956)"><ellipse rx="8.555023" ry="8.555023" transform="translate(210.018274 174.761881)" fill="#2b9200" stroke-width="0"/><ellipse rx="8.555023" ry="8.555023" transform="translate(228.204445 174.761881)" fill="#4bff00" stroke-width="0"/><rect width="27.520351" height="17.110046" rx="0" ry="0" transform="matrix(.68502 0 0 1 210.018274 166.206864)" fill="#2b9200" stroke-width="0"/></g><g transform="matrix(.644227 0 0 0.644233 57.453009 29.238083)"><ellipse rx="8.555023" ry="8.555023" transform="translate(210.018274 174.761881)" fill="#fff" stroke-width="0"/><ellipse rx="8.555023" ry="8.555023" transform="translate(228.204445 174.761881)" fill="#fff" stroke-width="0"/><rect width="27.520351" height="17.110046" rx="0" ry="0" transform="matrix(.68502 0 0 1 210.018274 166.206858)" fill="#fff" stroke-width="0"/></g><g transform="matrix(.644227 0 0 0.644233 55.307165 125.418744)"><ellipse rx="8.555023" ry="8.555023" transform="translate(210.018274 174.761881)" fill="#fff" stroke-width="0"/><ellipse rx="8.555023" ry="8.555023" transform="translate(228.204445 174.761881)" fill="#fff" stroke-width="0"/><rect width="27.520351" height="17.110046" rx="0" ry="0" transform="matrix(.68502 0 0 1 210.018274 166.206858)" fill="#fff" stroke-width="0"/></g><g transform="matrix(.644227 0 0 0.644233 49.082429 34.108254)"><ellipse rx="8.555023" ry="8.555023" transform="translate(210.018274 174.761881)" fill="#fff" stroke-width="0"/><ellipse rx="8.555023" ry="8.555023" transform="translate(228.204445 174.761881)" fill="#fff" stroke-width="0"/><rect width="27.520351" height="17.110046" rx="0" ry="0" transform="matrix(.68502 0 0 1 210.018274 166.206858)" fill="#fff" stroke-width="0"/></g><g transform="matrix(.644227 0 0 0.644233 40.455048 120.412176)"><ellipse rx="8.555023" ry="8.555023" transform="translate(210.018274 174.761881)" fill="#fff" stroke-width="0"/><ellipse rx="8.555023" ry="8.555023" transform="translate(228.204445 174.761881)" fill="#fff" stroke-width="0"/><rect width="27.520351" height="17.110046" rx="0" ry="0" transform="matrix(.68502 0 0 1 210.018274 166.206858)" fill="#fff" stroke-width="0"/></g><g transform="matrix(.644227 0 0 0.644233 44.744946 26.49862)"><ellipse rx="8.555023" ry="8.555023" transform="translate(193.540511 174.761881)" fill="#fff" stroke-width="0"/><ellipse rx="8.555023" ry="8.555023" transform="translate(228.204445 174.761881)" fill="#fff" stroke-width="0"/><rect width="27.520351" height="17.110046" rx="0" ry="0" transform="matrix(1.115903 0 0 1 195.672224 166.206858)" fill="#fff" stroke-width="0"/></g><g transform="matrix(1.914139 0 0 1.914133-255.202517-146.471628)"><ellipse rx="8.555023" ry="8.555023" transform="translate(210.018274 174.761881)" fill="#2b9200" stroke-width="0"/><ellipse rx="8.555023" ry="8.555023" transform="translate(228.316485 174.761881)" fill="#2b9200" stroke-width="0"/><rect width="27.520351" height="17.110046" rx="0" ry="0" transform="matrix(.68502 0 0 1 210.018274 166.206858)" fill="#2b9200" stroke-width="0"/></g><g transform="translate(-18.576289 44.171218)"><ellipse rx="8.555023" ry="8.555023" transform="translate(210.018282 174.761881)" fill="#2b9200" stroke-width="0"/><rect width="27.520351" height="17.110046" rx="0" ry="0" transform="matrix(1.306743 0 0 1 210.018282 166.206858)" fill="#2b9200" stroke-width="0"/><ellipse rx="8.555023" ry="8.555023" transform="translate(245.262292 174.761881)" fill="#4bff00" stroke-width="0"/><ellipse rx="8.555023" ry="8.555023" transform="translate(243.520347 174.761881)" fill="#2b9200" stroke-width="0"/></g></g><ellipse rx="27.314293" ry="27.314293" transform="translate(230.065863 90.476779)" fill="#ffd300" stroke-width="0"/><g transform="translate(0-8.844345)"><path d="M202.751572,47.539449Q70.468153,128.003887,62.704041,170.935812c-7.764112,42.931925,36.703077,39.442262,36.703077,8.555029q0-56.062705,103.344454-131.951392Z" transform="translate(.000001 0.000002)" fill="url(#eg90JW7GjCL41-fill)" stroke-width="0.6"/><ellipse rx="20.607804" ry="20.607804" transform="translate(79.909532 183.813503)" fill="#906033" stroke-width="0"/><ellipse rx="3.073065" ry="3.073065" transform="translate(69.897041 182.563902)" fill="#1e2939" stroke-width="0"/><ellipse rx="7.350576" ry="7.350576" transform="translate(87.260108 178.28639)" fill="#201812" stroke-width="0"/><ellipse rx="3.675288" ry="3.675288" transform="translate(83.58482 197.686372)" fill="#442911" stroke-width="0"/></g><g transform="translate(0-8.844345)"><ellipse rx="2.953326" ry="2.953326" transform="translate(97.56401 63.994756)" fill="#d2dbed" stroke-width="0"/><ellipse rx="2.953326" ry="2.953326" transform="translate(254.42683 144.77878)" fill="#d2dbed" stroke-width="0"/><ellipse rx="6.58815" ry="6.58815" transform="translate(63.308891 96.542035)" fill="#d2dbed" stroke-width="0"/><ellipse rx="6.588578" ry="6.588578" transform="translate(156.588578 50.85046)" fill="#d2dbed" stroke-width="0"/><ellipse rx="3.220656" ry="3.220656" transform="translate(143.580997 128.45132)" fill="#d2dbed" stroke-width="0"/><ellipse rx="6.042354" ry="6.042354" transform="translate(176.844631 109.172539)" fill="#d2dbed" stroke-width="0"/><ellipse rx="2.11083" ry="2.11083" transform="translate(102.628166 221.043929)" fill="#d2dbed" stroke-width="0"/><ellipse rx="3.326934" ry="3.326934" transform="translate(137.033407 246.844477)" fill="#d2dbed" stroke-width="0"/><ellipse rx="2.755714" ry="2.755714" transform="translate(40.115437 144.581168)" fill="#d2dbed" stroke-width="0"/></g></svg>
